<?xml version="1.0" encoding="utf-8"?>
<!-- Generator: Adobe Illustrator 28.0.0, SVG Export Plug-In . SVG Version: 6.00 Build 0)  -->
<!DOCTYPE svg PUBLIC "-//W3C//DTD SVG 1.1//EN" "http://www.w3.org/Graphics/SVG/1.1/DTD/svg11.dtd" [
	<!ENTITY ns_extend "http://ns.adobe.com/Extensibility/1.0/">
	<!ENTITY ns_ai "http://ns.adobe.com/AdobeIllustrator/10.0/">
	<!ENTITY ns_graphs "http://ns.adobe.com/Graphs/1.0/">
	<!ENTITY ns_vars "http://ns.adobe.com/Variables/1.0/">
	<!ENTITY ns_imrep "http://ns.adobe.com/ImageReplacement/1.0/">
	<!ENTITY ns_sfw "http://ns.adobe.com/SaveForWeb/1.0/">
	<!ENTITY ns_custom "http://ns.adobe.com/GenericCustomNamespace/1.0/">
	<!ENTITY ns_adobe_xpath "http://ns.adobe.com/XPath/1.0/">
]>
<svg version="1.1" id="Layer_1" xmlns:x="&ns_extend;" xmlns:i="&ns_ai;" xmlns:graph="&ns_graphs;"
	 xmlns="http://www.w3.org/2000/svg" xmlns:xlink="http://www.w3.org/1999/xlink" x="0px" y="0px"
	 viewBox="0 0 500.8695984 156.7377014" style="enable-background:new 0 0 500.8695984 156.7377014;" xml:space="preserve">
<style type="text/css">
	.st0{fill:#FFFFFF;}
</style>
<metadata>
	<sfw  xmlns="&ns_sfw;">
		<slices></slices>
		<sliceSourceBounds  bottomLeftOrigin="true" height="156.7377" width="500.8697851" x="0" y="-156.7377"></sliceSourceBounds>
	</sfw>
</metadata>
<path class="st0" d="M409.5473938,36.9175568c4.7496338-8.4197922,12.521759-17.4872627,15.3283691-20.2938614
	c12.9535217,5.3973045,25.0434875,16.4078026,23.3163452,19.2144012
	c-4.9655151,8.2039032-12.521759,17.4872627-15.3283386,20.2938614
	C419.9102173,50.7346535,407.820282,39.9400482,409.5473938,36.9175568z M500.8697815,74.0510101
	c-1.5112305,7.340332-10.5787048,15.5442352-14.4647827,16.8395844c-3.2383728-6.9085464-6.9085388-11.010498-10.3628235-11.010498
	c-4.3178406,0-4.5337219,3.0224915-4.5337219,6.9085464c0,6.9085464,4.9655151,22.0210037,4.9655151,37.7811279
	c0,17.2713699-12.0899658,30.0090103-30.6566772,30.0090103c-17.0015259,0-26.3961792-11.1449127-30.5871277-28.9498978
	c-11.1057739,19.9015121-27.346405,28.9498978-39.7937317,28.9498978c-19.4591675,0-24.0390625-14.3832397-23.5775452-28.9717712
	c-7.8193665,13.8185272-22.869812,28.9717712-37.3040161,28.9717712c-14.7346497,0-19.9394531-12.8251801-18.7459412-27.7612228
	c-8.8279724,16.4443283-24.7976685,27.7612228-40.192627,27.7612228c-16.7059174,0-24.974762-13.2711487-22.2988739-29.7208023
	c-11.2388306,13.8138351-32.1601257,29.7208023-53.9110565,29.7208023c-24.8006134,0-35.5960541-13.3733978-36.8755951-30.1315613
	c-11.9700012,19.1845703-28.1041412,30.7792358-47.3223419,30.7792358c-27.7423477,0-37.6651649-24.6698456-39.1091537-44.8493271
	c-10.2816544,13.7684479-21.8411598,28.0531235-36.0213089,43.9857559
	c-1.5112457,1.5112457-2.8065987,2.3748169-4.3178434,2.3748169c-4.9655199,0-15.1124506-22.0209961-15.7601271-30.2248993
	c5.7586699-8.9360199,52.7942734-59.6965561,72.3982925-81.5576935
	c-13.2434235,3.9961128-26.8975449,11.9657784-44.1164207,24.3462639
	C25.2593822,71.4603043,16.8395882,51.8141174,17.055479,36.701664
	C36.9175568,22.0209999,67.1424561,12.7376366,91.538269,12.7376366c34.1109619,0,53.7571411,18.9985085,53.7571411,45.3373528
	c0,22.0209961-18.3508301,46.2009201-45.1214523,47.0644836c-13.9197769,0.3615799-22.8411407-7.4522324-27.4041748-17.1012802
	c0.5454178,14.9231796,8.3042526,33.2931976,29.1313095,33.2931976c24.179924,0,34.9745331-15.5442352,53.1094666-38.2129135
	c13.8171082-17.055481,29.7931213-32.1679306,53.1094666-32.1679306c14.2488861,0,23.964035,8.8515778,23.964035,22.2368927
	c0,16.1919098-18.9985046,38.6446915-45.5532379,38.6446915c-4.5354309,0-8.6694183-0.5975494-12.1591187-1.7787323
	c-0.0879211,0.6808777-0.1467438,1.3503799-0.1467438,1.9946289c0,7.556221,2.8065948,12.0899582,15.1124573,12.0899582
	c18.1349335,0,35.1904144-10.7946091,55.9160614-36.0539856c20.2938538-24.8275986,35.6221924-35.6222076,51.8141174-35.6222076
	c10.9299622,0,19.2257996,5.9238052,22.8818359,15.9006958C341.6499634,37.02034,360.0593872,14.8132267,375.6523438,0
	c15.3283386,6.4767647,26.3388367,19.2144012,23.3163452,21.8051071
	c-11.4422913,10.3628235-49.6551819,52.0300064-64.7676392,76.857605
	c-3.8860474,6.4767609-7.5562439,13.6012039-7.5562439,17.055481c0,3.2383804,1.9430542,4.3178406,4.1019592,4.3178406
	c14.2489014,0,48.1439514-46.2009201,67.3583679-66.4947815c12.0899353,4.965519,24.395813,15.5442352,21.3733215,19.2144012
	c-15.9760437,18.9985123-28.065979,34.5427475-28.065979,43.3943253c0,2.3748093,0.8635559,3.886055,4.1019287,3.886055
	c6.0449829,0,11.6582031-5.3973007,20.9415588-16.8395844c1.9430237-2.3748169,4.3178406-2.3748169,5.829071,1.2953491
	c4.1019592,9.9310379,10.1469421,15.3283463,14.8965759,15.3283463c5.6131897,0,8.4197998-4.9655228,8.4197998-12.5217438
	c0-9.0674744-1.9430542-20.725647-1.9430542-25.9070587c0-17.4872665,12.9535522-27.6341972,29.1454468-27.6341972
	C484.8937683,53.7571449,495.688385,59.5862312,500.8697815,74.0510101z M101.7695312,42.559639
	c-7.2709656,11.3640633-14.038887,21.9796753-20.8757553,32.3321686c3.7157059,2.0868683,8.4143143,3.6929321,14.5305557,3.6929321
	c11.4422836,0,23.9640274-6.2608719,23.9640274-18.9985085C119.3883591,51.8561783,114.5906601,44.7296791,101.7695312,42.559639z
	 M177.655838,100.5353241c2.2689667,0.8765869,4.9328461,1.3657684,7.795517,1.3657684
	c15.3283386,0,25.6911621-11.6581726,25.6911621-19.4302902c0-3.454277-2.1589203-5.8290863-5.6131897-5.8290863
	C196.8677063,76.641716,183.8030701,88.7969818,177.655838,100.5353241z M306.1350708,84.4138336
	c0-4.3178482-2.3748169-6.9085541-6.2608643-6.9085541c-12.7376404,0-31.9520569,24.179924-31.9520569,36.2698822
	c0,3.8860626,2.1589355,6.4767685,6.6926575,6.4767685C288.6477966,120.2519302,306.1350708,94.7766571,306.1350708,84.4138336z"/>
</svg>
